<svg xmlns="http://www.w3.org/2000/svg" version="1.1" xmlns:xlink="http://www.w3.org/1999/xlink" xmlns:svgjs="http://svgjs.dev/svgjs" width="2000" height="1247" viewBox="0 0 2000 1247"><g transform="matrix(1,0,0,1,-1.2121212121212466,0.504858299595071)"><svg viewBox="0 0 396 247" data-background-color="#ffffff" preserveAspectRatio="xMidYMid meet" height="1247" width="2000" xmlns="http://www.w3.org/2000/svg" xmlns:xlink="http://www.w3.org/1999/xlink"><g id="tight-bounds" transform="matrix(1,0,0,1,0.2400000000000091,-0.09999999999999432)"><svg viewBox="0 0 395.52 247.2" height="247.2" width="395.52"><rect width="395.5199890136719" height="247.1999969482422" fill="url(#73e7d26c-ced7-4a07-81a6-b28543798ea9)" mask="url(#3bf80208-5441-43e5-a4fb-6232383c0176)" data-fill-palette-color="tertiary"></rect><g><svg></svg></g><g><svg viewBox="0 0 395.52 247.2" height="247.2" width="395.52"><mask id="62e896ce-8558-4efc-8ab9-06c40407fece"><rect width="395.52" height="247.2" fill="white"></rect><g transform="matrix(1,0,0,1,0,41.204852359720704)" id="clone"><svg viewBox="0 0 395.52 164.79029528055858" height="164.79029528055858" width="395.52"><g><svg viewBox="0 0 395.52 164.79029528055858" height="164.79029528055858" width="395.52"><g><svg viewBox="0 0 395.52 164.79029528055858" height="164.79029528055858" width="395.52"><g><svg viewBox="0 0 395.52 164.79029528055858" height="164.79029528055858" width="395.52"><g id="SvgjsG2640"><svg viewBox="0 0 395.52 164.79029528055858" height="164.79029528055858" width="395.52" id="SvgjsSvg2639"><g><svg viewBox="0 0 395.52 164.79029528055858" height="164.79029528055858" width="395.52"><g transform="matrix(1,0,0,1,0,0)"><svg width="395.52" viewBox="0.9200000762939453 -37.189998626708984 93.86000061035156 39.689998626708984" height="164.79029528055858" data-palette-color="url(#f8882b43-c1d3-4bd6-826e-2a6e19e5d26c)"><path d="M14.87 0L3.42-34.69 9.91-34.69 17.9-8.03 27.93-34.69 33.59-34.69 41.85-8.03 51.61-34.69 58.11-34.69 44.8 0 38.92 0 30.57-26.54 20.75 0 14.87 0ZM60.94-29.03L60.94-34.69 92.28-34.69 92.28-29.03 79.69-29.03 79.69 0 73.53 0 73.53-29.03 60.94-29.03Z" opacity="1" transform="matrix(1,0,0,1,0,0)" fill="black" class="wordmark-text-0" id="SvgjsPath2638" stroke-width="4" stroke="black" stroke-linejoin="round"></path></svg></g></svg></g></svg></g></svg></g></svg></g></svg></g></svg></g></mask><g mask="url(#62e896ce-8558-4efc-8ab9-06c40407fece)"><g><path xmlns="http://www.w3.org/2000/svg" d="M84.5 247.192l-81.586-247.184h46.244l56.933 189.966 71.468-189.966h40.33l58.857 189.966 69.545-189.966h46.315l-94.84 247.184h-41.898l-59.497-189.111-69.973 189.111z" fill="url(#73e7d26c-ced7-4a07-81a6-b28543798ea9)" fill-rule="nonzero" stroke="none" stroke-width="1" stroke-linecap="butt" stroke-linejoin="miter" stroke-miterlimit="10" stroke-dasharray="" stroke-dashoffset="0" font-family="none" font-weight="none" font-size="none" text-anchor="none" style="mix-blend-mode: normal" data-fill-palette-color="tertiary"></path></g></g><g transform="matrix(1,0,0,1,0,41.204852359720704)"><svg viewBox="0 0 395.52 164.79029528055858" height="164.79029528055858" width="395.52"><g><svg viewBox="0 0 395.52 164.79029528055858" height="164.79029528055858" width="395.52"><g><svg viewBox="0 0 395.52 164.79029528055858" height="164.79029528055858" width="395.52"><g><svg viewBox="0 0 395.52 164.79029528055858" height="164.79029528055858" width="395.52"><g id="textblocktransform"><svg viewBox="0 0 395.52 164.79029528055858" height="164.79029528055858" width="395.52" id="textblock"><g><svg viewBox="0 0 395.52 164.79029528055858" height="164.79029528055858" width="395.52"><g transform="matrix(1,0,0,1,0,0)"><svg width="395.52" viewBox="0.9200000762939453 -37.189998626708984 93.86000061035156 39.689998626708984" height="164.79029528055858" data-palette-color="url(#f8882b43-c1d3-4bd6-826e-2a6e19e5d26c)"></svg></g></svg></g></svg></g></svg></g></svg></g></svg></g></svg></g></svg></g><defs></defs><mask id="d47fd3ab-ea4d-4cf6-b901-27d836e29794"><g id="SvgjsG2650"><svg viewBox="0 0 395.52 247.2" height="247.2" width="395.52"><g><svg></svg></g><g><svg viewBox="0 0 395.52 247.2" height="247.2" width="395.52"><mask id="SvgjsMask2649"><g transform="matrix(1,0,0,1,0,41.204852359720704)" id="SvgjsG2648"><svg viewBox="0 0 395.52 164.79029528055858" height="164.79029528055858" width="395.52"><g><svg viewBox="0 0 395.52 164.79029528055858" height="164.79029528055858" width="395.52"><g><svg viewBox="0 0 395.52 164.79029528055858" height="164.79029528055858" width="395.52"><g><svg viewBox="0 0 395.52 164.79029528055858" height="164.79029528055858" width="395.52"><g id="SvgjsG2647"><svg viewBox="0 0 395.52 164.79029528055858" height="164.79029528055858" width="395.52" id="SvgjsSvg2646"><g><svg viewBox="0 0 395.52 164.79029528055858" height="164.79029528055858" width="395.52"><g transform="matrix(1,0,0,1,0,0)"><svg width="395.52" viewBox="0.9200000762939453 -37.189998626708984 93.86000061035156 39.689998626708984" height="164.79029528055858" data-palette-color="url(#f8882b43-c1d3-4bd6-826e-2a6e19e5d26c)"></svg></g></svg></g></svg></g></svg></g></svg></g></svg></g></svg></g></mask><g mask="url(#62e896ce-8558-4efc-8ab9-06c40407fece)"><g></g></g><g transform="matrix(1,0,0,1,0,41.204852359720704)"><svg viewBox="0 0 395.52 164.79029528055858" height="164.79029528055858" width="395.52"><g><svg viewBox="0 0 395.52 164.79029528055858" height="164.79029528055858" width="395.52"><g><svg viewBox="0 0 395.52 164.79029528055858" height="164.79029528055858" width="395.52"><g><svg viewBox="0 0 395.52 164.79029528055858" height="164.79029528055858" width="395.52"><g id="SvgjsG2644"><svg viewBox="0 0 395.52 164.79029528055858" height="164.79029528055858" width="395.52" id="SvgjsSvg2643"><g><svg viewBox="0 0 395.52 164.79029528055858" height="164.79029528055858" width="395.52"><g transform="matrix(1,0,0,1,0,0)"><svg width="395.52" viewBox="0.9200000762939453 -37.189998626708984 93.86000061035156 39.689998626708984" height="164.79029528055858" data-palette-color="url(#f8882b43-c1d3-4bd6-826e-2a6e19e5d26c)"><path d="M14.87 0L3.42-34.69 9.91-34.69 17.9-8.03 27.93-34.69 33.59-34.69 41.85-8.03 51.61-34.69 58.11-34.69 44.8 0 38.92 0 30.57-26.54 20.75 0 14.87 0ZM60.94-29.03L60.94-34.69 92.28-34.69 92.28-29.03 79.69-29.03 79.69 0 73.53 0 73.53-29.03 60.94-29.03Z" opacity="1" transform="matrix(1,0,0,1,0,0)" fill="white" class="wordmark-text-0" id="SvgjsPath2642"></path></svg></g></svg></g></svg></g></svg></g></svg></g></svg></g></svg></g></svg></g><defs></defs></svg></g></mask><linearGradient x1="0.054" x2="0.941" y1="0.5" y2="0.5" id="f8882b43-c1d3-4bd6-826e-2a6e19e5d26c"><stop stop-color="#26282a" offset="0"></stop><stop stop-color="#9e9fa0" offset="0.498"></stop><stop stop-color="#26282a" offset="1"></stop></linearGradient><rect width="395.5199890136719" height="247.1999969482422" fill="url(#f8882b43-c1d3-4bd6-826e-2a6e19e5d26c)" mask="url(#d47fd3ab-ea4d-4cf6-b901-27d836e29794)" data-fill-palette-color="primary"></rect><mask id="3bf80208-5441-43e5-a4fb-6232383c0176"><g id="SvgjsG2666"><svg viewBox="0 0 395.52 247.2" height="247.2" width="395.52"><g><svg></svg></g><g><svg viewBox="0 0 395.52 247.2" height="247.2" width="395.52"><mask id="SvgjsMask2665"><g transform="matrix(1,0,0,1,0,41.204852359720704)" id="SvgjsG2664"><svg viewBox="0 0 395.52 164.79029528055858" height="164.79029528055858" width="395.52"><g><svg viewBox="0 0 395.52 164.79029528055858" height="164.79029528055858" width="395.52"><g><svg viewBox="0 0 395.52 164.79029528055858" height="164.79029528055858" width="395.52"><g><svg viewBox="0 0 395.52 164.79029528055858" height="164.79029528055858" width="395.52"><g id="SvgjsG2663"><svg viewBox="0 0 395.52 164.79029528055858" height="164.79029528055858" width="395.52" id="SvgjsSvg2662"><g><svg viewBox="0 0 395.52 164.79029528055858" height="164.79029528055858" width="395.52"><g transform="matrix(1,0,0,1,0,0)"><svg width="395.52" viewBox="0.9200000762939453 -37.189998626708984 93.86000061035156 39.689998626708984" height="164.79029528055858" data-palette-color="url(#f8882b43-c1d3-4bd6-826e-2a6e19e5d26c)"></svg></g></svg></g></svg></g></svg></g></svg></g></svg></g></svg></g></mask><g mask="url(#62e896ce-8558-4efc-8ab9-06c40407fece)"><g><path xmlns="http://www.w3.org/2000/svg" d="M84.5 247.192l-81.586-247.184h46.244l56.933 189.966 71.468-189.966h40.33l58.857 189.966 69.545-189.966h46.315l-94.84 247.184h-41.898l-59.497-189.111-69.973 189.111z" fill="white" fill-rule="nonzero" stroke="none" stroke-width="1" stroke-linecap="butt" stroke-linejoin="miter" stroke-miterlimit="10" stroke-dasharray="" stroke-dashoffset="0" font-family="none" font-weight="none" font-size="none" text-anchor="none" style="mix-blend-mode: normal"></path></g></g><g transform="matrix(1,0,0,1,0,41.204852359720704)"><svg viewBox="0 0 395.52 164.79029528055858" height="164.79029528055858" width="395.52"><g><svg viewBox="0 0 395.52 164.79029528055858" height="164.79029528055858" width="395.52"><g><svg viewBox="0 0 395.52 164.79029528055858" height="164.79029528055858" width="395.52"><g><svg viewBox="0 0 395.52 164.79029528055858" height="164.79029528055858" width="395.52"><g id="SvgjsG2660"><svg viewBox="0 0 395.52 164.79029528055858" height="164.79029528055858" width="395.52" id="SvgjsSvg2659"><g><svg viewBox="0 0 395.52 164.79029528055858" height="164.79029528055858" width="395.52"><g transform="matrix(1,0,0,1,0,0)"><svg width="395.52" viewBox="0.9200000762939453 -37.189998626708984 93.86000061035156 39.689998626708984" height="164.79029528055858" data-palette-color="url(#f8882b43-c1d3-4bd6-826e-2a6e19e5d26c)"></svg></g></svg></g></svg></g></svg></g></svg></g></svg></g></svg></g></svg></g><defs></defs><mask><g id="SvgjsG2658"><svg viewBox="0 0 395.52 247.2" height="247.2" width="395.52"><g><svg></svg></g><g><svg viewBox="0 0 395.52 247.2" height="247.2" width="395.52"><mask id="SvgjsMask2657"><g transform="matrix(1,0,0,1,0,41.204852359720704)" id="SvgjsG2656"><svg viewBox="0 0 395.52 164.79029528055858" height="164.79029528055858" width="395.52"><g><svg viewBox="0 0 395.52 164.79029528055858" height="164.79029528055858" width="395.52"><g><svg viewBox="0 0 395.52 164.79029528055858" height="164.79029528055858" width="395.52"><g><svg viewBox="0 0 395.52 164.79029528055858" height="164.79029528055858" width="395.52"><g id="SvgjsG2655"><svg viewBox="0 0 395.52 164.79029528055858" height="164.79029528055858" width="395.52" id="SvgjsSvg2654"><g><svg viewBox="0 0 395.52 164.79029528055858" height="164.79029528055858" width="395.52"><g transform="matrix(1,0,0,1,0,0)"><svg width="395.52" viewBox="0.9200000762939453 -37.189998626708984 93.86000061035156 39.689998626708984" height="164.79029528055858" data-palette-color="url(#f8882b43-c1d3-4bd6-826e-2a6e19e5d26c)"></svg></g></svg></g></svg></g></svg></g></svg></g></svg></g></svg></g></mask><g mask="url(#62e896ce-8558-4efc-8ab9-06c40407fece)"><g></g></g><g transform="matrix(1,0,0,1,0,41.204852359720704)"><svg viewBox="0 0 395.52 164.79029528055858" height="164.79029528055858" width="395.52"><g><svg viewBox="0 0 395.52 164.79029528055858" height="164.79029528055858" width="395.52"><g><svg viewBox="0 0 395.52 164.79029528055858" height="164.79029528055858" width="395.52"><g><svg viewBox="0 0 395.52 164.79029528055858" height="164.79029528055858" width="395.52"><g id="SvgjsG2653"><svg viewBox="0 0 395.52 164.79029528055858" height="164.79029528055858" width="395.52" id="SvgjsSvg2652"><g><svg viewBox="0 0 395.52 164.79029528055858" height="164.79029528055858" width="395.52"><g transform="matrix(1,0,0,1,0,0)"><svg width="395.52" viewBox="0.9200000762939453 -37.189998626708984 93.86000061035156 39.689998626708984" height="164.79029528055858" data-palette-color="url(#f8882b43-c1d3-4bd6-826e-2a6e19e5d26c)"></svg></g></svg></g></svg></g></svg></g></svg></g></svg></g></svg></g></svg></g><defs></defs></svg></g></mask></svg></g></mask><linearGradient x1="0.054" x2="0.941" y1="0.5" y2="0.5" id="73e7d26c-ced7-4a07-81a6-b28543798ea9"><stop stop-color="#26282a" offset="0"></stop><stop stop-color="#9e9fa0" offset="0.498"></stop><stop stop-color="#26282a" offset="1"></stop></linearGradient></svg><rect width="395.52" height="247.2" fill="none" stroke="none" visibility="hidden"></rect></g></svg></g></svg>